<svg width="64" height="64" viewBox="0 0 64 64" fill="none" xmlns="http://www.w3.org/2000/svg">
<g id="auction 1">
<g id="Group">
<g id="Group_2">
<g id="Group_3">
<g id="Group_4">
<path id="Vector" d="M11.8516 50.1247V51.0304H37.3309V50.1247C37.3309 46.7318 34.5776 43.9785 31.1844 43.9785H17.998C14.6048 43.9785 11.8516 46.7318 11.8516 50.1247Z" fill="white" fill-opacity="0.8"/>
</g>
</g>
</g>
<g id="Group_5">
<g id="Group_6">
<g id="Group_7">
<path id="Vector_2" d="M44.6551 59.8927H42.9684V58.1757C42.9684 54.8974 40.311 52.24 37.0328 52.24H12.1519C8.87375 52.24 6.21632 54.8974 6.21632 58.1757V59.8927H4.52955C4.19583 59.8927 3.92578 60.1628 3.92578 60.4965C3.92578 60.8302 4.19583 61.1003 4.52955 61.1003H44.6551C44.9889 61.1003 45.2589 60.8302 45.2589 60.4965C45.2589 60.1628 44.9889 59.8927 44.6551 59.8927Z" fill="white" fill-opacity="0.8"/>
</g>
</g>
</g>
<g id="Group_8">
<g id="Group_9">
<g id="Group_10">
<path id="Vector_3" d="M57.906 41.9121L38.0057 25.3809L32.9219 30.4646L49.4532 50.3649C51.7113 53.0819 55.817 53.275 58.3166 50.7753C60.8163 48.2759 60.623 44.1701 57.906 41.9121Z" fill="white" fill-opacity="0.8"/>
</g>
</g>
</g>
<g id="Group_11">
<g id="Group_12">
<g id="Group_13">
<path id="Vector_4" d="M16.375 22.459L29.9938 8.84019L41.4159 20.2623L27.7971 33.8811L16.375 22.459Z" fill="white" fill-opacity="0.8"/>
</g>
</g>
</g>
<g id="Group_14">
<g id="Group_15">
<g id="Group_16">
<path id="Vector_5" d="M42.9663 20.0974C43.969 21.1003 45.5947 21.1003 46.5974 20.0974C47.6001 19.0947 47.6001 17.4691 46.5974 16.4665L33.7816 3.65043C32.7789 2.64777 31.1532 2.64777 30.1505 3.65043C29.1478 4.65338 29.1478 6.27897 30.1505 7.28162L42.9663 20.0974Z" fill="white" fill-opacity="0.8"/>
</g>
</g>
</g>
<g id="Group_17">
<g id="Group_18">
<g id="Group_19">
<path id="Vector_6" d="M24.0093 39.0546C25.012 40.0573 26.6377 40.0573 27.6404 39.0546C28.6431 38.0517 28.6431 36.4261 27.6404 35.4234L14.8246 22.6077C13.8218 21.6047 12.1962 21.6047 11.1935 22.6077C10.1907 23.6103 10.1907 25.2359 11.1935 26.2386L24.0093 39.0546Z" fill="white" fill-opacity="0.8"/>
</g>
</g>
</g>
</g>
</g>
</svg>
