<svg width="64" height="64" viewBox="0 0 64 64" fill="none" xmlns="http://www.w3.org/2000/svg">
<g id="calendar(2) 1">
<g id="Group">
<path id="Vector" d="M55.7181 3.76562H50.071V9.41268C50.071 10.5421 49.1299 11.295 48.1887 11.295C47.2475 11.295 46.3063 10.5421 46.3063 9.41268V3.76562H16.1887V9.41268C16.1887 10.5421 15.2475 11.295 14.3063 11.295C13.3652 11.295 12.424 10.5421 12.424 9.41268V3.76562H6.77693C3.9534 3.76562 1.88281 6.21268 1.88281 9.41268V16.1892H62.1181V9.41268C62.1181 6.21268 58.7299 3.76562 55.7181 3.76562ZM1.88281 20.1421V54.5892C1.88281 57.9774 3.9534 60.2362 6.96517 60.2362H55.9063C58.9181 60.2362 62.3063 57.7892 62.3063 54.5892V20.1421H1.88281ZM18.6358 51.7656H14.1181C13.3652 51.7656 12.6122 51.2009 12.6122 50.2597V45.5539C12.6122 44.8009 13.1769 44.048 14.1181 44.048H18.824C19.5769 44.048 20.3299 44.6127 20.3299 45.5539V50.2597C20.1416 51.2009 19.5769 51.7656 18.6358 51.7656ZM18.6358 34.8244H14.1181C13.3652 34.8244 12.6122 34.2597 12.6122 33.3186V28.6127C12.6122 27.8597 13.1769 27.1068 14.1181 27.1068H18.824C19.5769 27.1068 20.3299 27.6715 20.3299 28.6127V33.3186C20.1416 34.2597 19.5769 34.8244 18.6358 34.8244ZM33.6946 51.7656H28.9887C28.2358 51.7656 27.4828 51.2009 27.4828 50.2597V45.5539C27.4828 44.8009 28.0475 44.048 28.9887 44.048H33.6946C34.4475 44.048 35.2005 44.6127 35.2005 45.5539V50.2597C35.2005 51.2009 34.6358 51.7656 33.6946 51.7656ZM33.6946 34.8244H28.9887C28.2358 34.8244 27.4828 34.2597 27.4828 33.3186V28.6127C27.4828 27.8597 28.0475 27.1068 28.9887 27.1068H33.6946C34.4475 27.1068 35.2005 27.6715 35.2005 28.6127V33.3186C35.2005 34.2597 34.6358 34.8244 33.6946 34.8244ZM48.7534 51.7656H44.0475C43.2946 51.7656 42.5416 51.2009 42.5416 50.2597V45.5539C42.5416 44.8009 43.1063 44.048 44.0475 44.048H48.7534C49.5063 44.048 50.2593 44.6127 50.2593 45.5539V50.2597C50.2593 51.2009 49.6946 51.7656 48.7534 51.7656ZM48.7534 34.8244H44.0475C43.2946 34.8244 42.5416 34.2597 42.5416 33.3186V28.6127C42.5416 27.8597 43.1063 27.1068 44.0475 27.1068H48.7534C49.5063 27.1068 50.2593 27.6715 50.2593 28.6127V33.3186C50.2593 34.2597 49.6946 34.8244 48.7534 34.8244Z" fill="white" fill-opacity="0.8"/>
</g>
</g>
</svg>
