<svg width="64" height="64" viewBox="0 0 64 64" fill="none" xmlns="http://www.w3.org/2000/svg">
<g id="defendant 1">
<g id="layer1">
<path id="path2681" d="M32.0039 2C27.5892 2 24.0019 5.57941 24.0019 9.99412V13.0001C24.0019 17.4147 27.5892 21.002 32.0039 21.002C36.4186 21.002 39.998 17.4147 39.998 13.0001V9.99412C39.998 5.57941 36.4186 2 32.0039 2ZM29 21.9942L22.9961 21.998C22.6959 21.9988 22.412 22.1344 22.2227 22.3672L7.14258 40.9981H15.7539L21.998 33.7051L22 40.9981H42V33.6856L48.334 40.9981H56.8594L41.7793 22.3672C41.5882 22.1321 41.301 21.9965 40.9981 21.998L35.0059 21.9942C34.6922 21.9952 34.3971 22.1434 34.209 22.3945L31.9766 25.3282L29.7989 22.4043C29.6124 22.1492 29.3161 21.997 29 21.9942ZM3 43C2.45078 43.0021 2.0061 43.4469 2.00391 43.9961V50.9981H62.0039V43.9961C62.0019 43.4439 61.5523 42.9979 61 43C41.6667 43 22.3333 43 3 43ZM5.99609 53V60.9961C5.99409 61.5521 6.44587 62.0032 7.00195 62H56.998C57.5534 62.002 58.0041 61.5514 58.0019 60.9961V53H5.99609Z" fill="white" fill-opacity="0.8"/>
</g>
</g>
</svg>
