<svg width="64" height="64" viewBox="0 0 64 64" fill="none" xmlns="http://www.w3.org/2000/svg">
<g id="handshake(3) 1">
<path id="Vector" d="M22.3634 48.8451C22.3328 49.1495 22.3591 49.4674 22.4701 49.7824C22.741 50.5419 23.3767 51.1605 24.1298 51.3938C24.8295 51.6149 25.5257 51.4677 25.7369 51.238L27.1968 49.6714C27.6192 49.2199 27.7259 48.4981 27.4777 47.7977C26.8669 46.6272 26.0484 46.2048 25.0002 46.0156L22.3634 48.8451Z" fill="white" fill-opacity="0.8"/>
<path id="Vector_2" d="M20.411 41.0118L17.8595 43.7481C17.3411 44.312 17.1925 45.1789 17.4819 46.0095C17.7891 46.887 18.5223 47.6009 19.3998 47.8676C20.2304 48.1165 21.0638 47.9231 21.5857 47.3677L23.9481 44.834C24.47 44.2715 24.6151 43.4089 24.3257 42.5784C24.0185 41.6966 23.281 40.9855 22.4078 40.7202C21.7109 40.4976 20.8931 40.4891 20.411 41.0118Z" fill="white" fill-opacity="0.8"/>
<path id="Vector_3" d="M15.351 36.51L12.9951 39.0394C12.476 39.599 12.331 40.4687 12.6175 41.3021C12.9247 42.1768 13.6579 42.8908 14.5354 43.1574C15.3646 43.4099 16.2065 43.2129 16.4689 42.9349L19.0844 40.1281C19.6063 39.5642 19.7514 38.6973 19.462 37.8682C19.1534 36.9878 18.4202 36.2767 17.5427 36.0129C16.7356 35.7498 15.8424 35.9837 15.351 36.51Z" fill="white" fill-opacity="0.8"/>
<path id="Vector_4" d="M10.745 31.5235L8.13377 34.3317C7.61181 34.8942 7.46675 35.7567 7.75617 36.5831C8.06053 37.4677 8.79795 38.1788 9.67546 38.4455C10.5046 38.6929 11.3451 38.5009 11.6047 38.2193L14.223 35.4126V35.4097C14.745 34.8543 14.89 33.9903 14.6006 33.1612C14.2977 32.2766 13.5603 31.5655 12.6827 31.3016C12.0122 31.0705 11.2008 31.0307 10.745 31.5235Z" fill="white" fill-opacity="0.8"/>
<path id="Vector_5" d="M44.6445 14.7754C42.9556 15.7197 40.6083 15.889 38.322 16.0533C36.5926 16.1713 34.8084 16.2965 33.5263 16.7701L26.3974 19.4005C26.3491 19.4197 26.3 19.431 26.2488 19.4381C25.9046 19.4922 25.586 19.5384 25.3002 19.5782C23.5643 19.8229 23.3638 19.8975 23.164 20.4117C22.9819 20.8867 23.1818 21.5715 23.6753 22.1532C24.0778 22.631 25.6529 24.1229 28.8934 23.3557L32.9531 22.8195C35.2266 22.5265 37.0491 24.0085 38.5048 25.2045L49.4225 33.9384L49.431 33.9341C51.5892 33.031 53.8378 31.8563 55.7492 29.5537L44.6445 14.7754Z" fill="white" fill-opacity="0.8"/>
<path id="Vector_6" d="M29.623 14.2459C28.9759 14.3056 28.2342 14.3874 27.4562 14.4684C23.1533 14.9278 20.7675 15.1084 19.5537 14.8837L8.38281 29.4238C8.79383 29.8128 9.13446 30.2167 9.40895 30.654C10.3426 29.6983 11.7535 29.357 13.1273 29.7723C14.4756 30.179 15.6013 31.272 16.0721 32.6281C16.2719 33.2019 16.3345 33.7907 16.2833 34.3547C16.8344 34.2771 17.4168 34.3091 17.9899 34.4841C19.3346 34.888 20.4646 35.9838 20.9318 37.3399C21.1345 37.9109 21.1985 38.4983 21.1501 39.0622C21.7012 38.9847 22.2836 39.0174 22.8568 39.1959C24.1986 39.6026 25.3236 40.6956 25.7944 42.0446C26.0902 42.9001 26.1016 43.7804 25.8612 44.5698C25.9985 44.5961 26.1393 44.6295 26.2793 44.6736C27.4833 45.0469 28.5058 46.0361 28.946 47.2556C29.3656 48.4361 29.1835 49.6763 28.4945 50.5666L30.4763 52.1516C30.9613 52.5363 31.6681 52.5783 32.3281 52.2583C33.0434 51.9113 33.5839 51.2066 33.7432 50.4179C33.81 50.0887 33.788 49.7694 33.7126 49.4736L31.1988 47.4626C30.861 47.1916 30.8013 46.6917 31.0651 46.3447C31.3318 46.0005 31.821 45.9365 32.1609 46.2074L35.1832 48.6295C35.4833 48.8699 36.343 48.9338 37.1316 48.5626C37.9608 48.1666 38.5873 47.3502 38.7608 46.4393C38.9272 45.5781 38.6605 44.7433 38.0674 44.2654L35.3339 42.078C34.9933 41.8071 34.9336 41.3058 35.2002 40.963C35.4641 40.6146 35.9561 40.5506 36.2932 40.8258L40.2669 44.0037C40.8642 44.4787 41.7225 44.5442 42.5154 44.1744C43.3375 43.7811 43.964 42.9662 44.1418 42.0453C44.3081 41.1842 44.0415 40.3522 43.442 39.87L39.4669 36.6963C39.1263 36.4226 39.0665 35.9226 39.3332 35.5728C39.5999 35.23 40.0891 35.1703 40.4305 35.4405C40.4305 35.4405 46.4664 40.2668 46.4706 40.2668C46.7707 40.5029 47.6262 40.5698 48.4113 40.1943C49.2418 39.8067 49.8641 38.9918 50.0447 38.0738C50.2082 37.2112 49.9416 36.3735 49.3449 35.8999L37.5313 26.4457C36.1759 25.3342 34.7757 24.1829 33.1494 24.4012L29.1714 24.9203C26.4898 25.5646 23.9604 24.9275 22.4977 23.198C21.6159 22.1563 21.3158 20.8677 21.7119 19.8316C22.2673 18.3945 23.3311 18.2459 25.0868 17.9984C25.3492 17.965 25.6315 17.9237 25.9423 17.8747L32.9979 15.272C33.4566 15.1013 33.9643 14.9833 34.4898 14.8787C32.6758 14.1769 31.3609 14.1349 29.623 14.2459Z" fill="white" fill-opacity="0.8"/>
<path id="Vector_7" d="M14.2872 11.491C13.0022 11.3936 11.8289 12.3621 10.14 14.5616L5.82068 20.1879C4.25837 22.2174 3.67312 23.4797 3.80254 24.5492C3.90637 25.4281 4.51792 26.2907 5.1245 26.7771L7.17321 28.4133L18.2985 13.933L16.8585 12.7803C15.8687 11.9909 15.058 11.5508 14.2872 11.491Z" fill="white" fill-opacity="0.8"/>
<path id="Vector_8" d="M49.9638 11.4755C49.193 11.5238 48.3752 11.9548 47.3775 12.7327L45.9219 13.862L56.8929 28.4604L58.3109 27.3574C59.5375 26.406 60.1633 25.5548 60.2778 24.6765C60.4193 23.6099 59.8525 22.3377 58.3151 20.2819L54.0662 14.6015C52.4108 12.3793 51.2524 11.393 49.9638 11.4755Z" fill="white" fill-opacity="0.8"/>
</g>
</svg>
