<svg width="36" height="36" viewBox="0 0 36 36" fill="none" xmlns="http://www.w3.org/2000/svg">
<path id="Vector" d="M35.9632 26.9529V32.3724C35.9653 32.8755 35.8622 33.3735 35.6606 33.8344C35.4591 34.2954 35.1635 34.7092 34.7927 35.0493C34.422 35.3895 33.9843 35.6484 33.5077 35.8096C33.0311 35.9708 32.5261 36.0306 32.0251 35.9853C26.4662 35.3813 21.1266 33.4818 16.4351 30.4394C12.0703 27.6659 8.36977 23.9653 5.59621 19.6005C2.54322 14.8878 0.643273 9.52214 0.0503072 3.93831C0.0051641 3.43876 0.0645331 2.93528 0.224634 2.45993C0.384734 1.98458 0.642059 1.54777 0.980224 1.17732C1.31839 0.806866 1.72998 0.510885 2.18881 0.30822C2.64763 0.105556 3.14362 0.000647501 3.64521 0.000175143H9.06466C9.94136 -0.00845343 10.7913 0.302 11.456 0.873669C12.1207 1.44534 12.5549 2.23922 12.6776 3.10733C12.9064 4.84167 13.3306 6.54457 13.9422 8.18355C14.1852 8.83013 14.2378 9.53284 14.0937 10.2084C13.9497 10.884 13.6149 11.5041 13.1293 11.9952L10.835 14.2895C13.4066 18.8121 17.1513 22.5567 21.6739 25.1284L23.9682 22.8341C24.4593 22.3484 25.0794 22.0137 25.755 21.8696C26.4305 21.7256 27.1333 21.7782 27.7798 22.0212C29.4188 22.6328 31.1217 23.057 32.8561 23.2858C33.7336 23.4096 34.535 23.8516 35.1079 24.5277C35.6808 25.2038 35.9852 26.067 35.9632 26.9529Z" fill="#604B33"/>
</svg>
