<svg width="30" height="36" viewBox="0 0 30 36" fill="none" xmlns="http://www.w3.org/2000/svg">
<path id="Subtract" fill-rule="evenodd" clip-rule="evenodd" d="M15 36C15 36 29.7273 26.1818 29.7273 14.7273C29.7273 10.8214 28.1756 7.07542 25.4137 4.31352C22.6518 1.55162 18.9059 0 15 0C11.0941 0 7.34812 1.55162 4.58622 4.31352C1.82432 7.07542 0.272705 10.8214 0.272705 14.7273C0.272705 26.1818 15 36 15 36ZM19.9091 14.7273C19.9091 17.4385 17.7112 19.6364 15 19.6364C12.2888 19.6364 10.0909 17.4385 10.0909 14.7273C10.0909 12.0161 12.2888 9.81818 15 9.81818C17.7112 9.81818 19.9091 12.0161 19.9091 14.7273Z" fill="#604B33"/>
</svg>
